<?xml version="1.0" encoding="UTF-8" standalone="no"?>
<!DOCTYPE svg PUBLIC "-//W3C//DTD SVG 1.1//EN" "http://www.w3.org/Graphics/SVG/1.1/DTD/svg11.dtd">
<svg width="100%" height="100%" viewBox="0 0 2574 769" version="1.1" xmlns="http://www.w3.org/2000/svg" xmlns:xlink="http://www.w3.org/1999/xlink" xml:space="preserve" xmlns:serif="http://www.serif.com/" style="fill-rule:evenodd;clip-rule:evenodd;stroke-linejoin:round;stroke-miterlimit:2;">
    <g transform="matrix(1,0,0,1,-8714.9,-5213.98)">
        <g id="Logo_Contrast_Horiz" transform="matrix(1.52226,0,0,0.712447,5261.07,4389.74)">
            <rect x="2268.89" y="1156.92" width="1690.37" height="1079.06" style="fill:none;"/>
            <g transform="matrix(0.382793,0,0,0.817899,2289.04,1251.09)">
                <path d="M540,919.263C330.679,919.263 160.737,749.321 160.737,540C160.737,330.679 330.679,160.737 540,160.737C692.574,160.737 824.227,251.027 884.395,381.044C891.414,396.19 906.589,405.882 923.282,405.882C1240.55,405.924 4105.73,405.924 4105.73,405.924C4129.42,405.924 4148.63,425.133 4148.63,448.827L4148.63,876.36C4148.63,900.054 4129.42,919.263 4105.73,919.263L540,919.263Z" style="fill:rgb(235,235,235);"/>
            </g>
            <g transform="matrix(0.58271,0,0,0.58271,966.936,576.943)">
                <g transform="matrix(0.656918,0,0,1.40361,2268.89,1156.92)">
                    <circle cx="540" cy="540" r="23.309" style="fill:rgb(40,89,124);"/>
                </g>
                <g transform="matrix(0.687348,0,0,2.70381,2252.46,692.401)">
                    <path d="M519.004,273.028C523.185,268.848 531.241,266.245 540,266.245C548.759,266.245 556.815,268.848 560.996,273.028C583.412,295.444 617.574,329.606 631.439,343.471C635.288,347.32 635.303,351.965 631.478,355.821C617.646,369.766 583.472,404.221 561.035,426.843C556.867,431.045 548.788,433.665 540,433.665C531.212,433.665 523.133,431.045 518.965,426.843C496.528,404.221 462.354,369.766 448.522,355.821C444.697,351.965 444.712,347.32 448.561,343.471C462.426,329.606 496.588,295.444 519.004,273.028Z" style="fill:rgb(40,89,124);"/>
                </g>
                <g transform="matrix(-0.687348,-1.79855e-16,1.54971e-16,-2.70381,2994.79,3137.33)">
                    <path d="M519.004,273.028C523.185,268.848 531.241,266.245 540,266.245C548.759,266.245 556.815,268.848 560.996,273.028C583.412,295.444 617.574,329.606 631.439,343.471C635.288,347.32 635.303,351.965 631.478,355.821C617.646,369.766 583.472,404.221 561.035,426.843C556.867,431.045 548.788,433.665 540,433.665C531.212,433.665 523.133,431.045 518.965,426.843C496.528,404.221 462.354,369.766 448.522,355.821C444.697,351.965 444.712,347.32 448.561,343.471C462.426,329.606 496.588,295.444 519.004,273.028Z" style="fill:rgb(25,47,52);"/>
                </g>
                <g transform="matrix(0.343674,-1.27187,1.0959,1.35191,1942.55,1990.44)">
                    <path d="M519.004,273.028C523.185,268.848 531.241,266.245 540,266.245C548.759,266.245 556.815,268.848 560.996,273.028C583.412,295.444 617.574,329.606 631.439,343.471C635.288,347.32 635.303,351.965 631.478,355.821C617.646,369.766 583.472,404.221 561.035,426.843C556.867,431.045 548.788,433.665 540,433.665C531.212,433.665 523.133,431.045 518.965,426.843C496.528,404.221 462.354,369.766 448.522,355.821C444.697,351.965 444.712,347.32 448.561,343.471C462.426,329.606 496.588,295.444 519.004,273.028Z" style="fill:rgb(193,80,49);"/>
                </g>
                <g transform="matrix(0.343674,1.27187,-1.0959,1.35191,2933.53,616.824)">
                    <path d="M519.004,273.028C523.185,268.848 531.241,266.245 540,266.245C548.759,266.245 556.815,268.848 560.996,273.028C583.412,295.444 617.574,329.606 631.439,343.471C635.288,347.32 635.303,351.965 631.478,355.821C617.646,369.766 583.472,404.221 561.035,426.843C556.867,431.045 548.788,433.665 540,433.665C531.212,433.665 523.133,431.045 518.965,426.843C496.528,404.221 462.354,369.766 448.522,355.821C444.697,351.965 444.712,347.32 448.561,343.471C462.426,329.606 496.588,295.444 519.004,273.028Z" style="fill:rgb(161,184,152);"/>
                </g>
                <g transform="matrix(-0.401406,1.48553,0.601205,0.741648,2966.9,605.473)">
                    <path d="M856.854,58.202C860.419,50.53 867.342,45.744 874.873,45.744C882.405,45.744 889.328,50.53 892.893,58.202C906.802,88.134 925.875,129.179 939.303,158.076C942.71,165.407 942.535,174.27 938.842,181.414C935.148,188.557 928.481,192.931 921.283,192.931C893.942,192.931 855.804,192.931 828.463,192.931C821.266,192.931 814.598,188.557 810.905,181.414C807.212,174.27 807.037,165.407 810.444,158.076C823.872,129.179 842.945,88.134 856.854,58.202Z" style="fill:rgb(25,47,52);"/>
                </g>
                <g transform="matrix(-0.401406,-1.48553,-0.601205,0.741648,2982.7,3204.77)">
                    <path d="M856.854,58.202C860.419,50.53 867.342,45.744 874.873,45.744C882.405,45.744 889.328,50.53 892.893,58.202C906.802,88.134 925.875,129.179 939.303,158.076C942.71,165.407 942.535,174.27 938.842,181.414C935.148,188.557 928.481,192.931 921.283,192.931C893.942,192.931 855.804,192.931 828.463,192.931C821.266,192.931 814.598,188.557 810.905,181.414C807.212,174.27 807.037,165.407 810.444,158.076C823.872,129.179 842.945,88.134 856.854,58.202Z" style="fill:rgb(25,47,52);"/>
                </g>
            </g>
            <g transform="matrix(1,0,0,1,75.3572,99.8478)">
                <g transform="matrix(0.656918,0,0,1.79653,1011.99,-1250.1)">
                    <g transform="matrix(1.26299,0,0,1.26299,-314.474,340.485)">
                        <g transform="matrix(115.466,0,0,115.466,2706.79,1065.23)">
                        </g>
                        <text x="2163.06px" y="1065.23px" style="font-family:'FuturaCyrillic-Bold', 'Futura PT', sans-serif;font-weight:700;font-size:115.466px;fill:rgb(193,80,49);stroke:rgb(235,235,235);stroke-width:2.19px;">BUILDING</text>
                    </g>
                    <g transform="matrix(1.32251,0,0,1.32251,238.099,279.27)">
                        <g transform="matrix(110.27,0,0,110.27,2587.05,1065.23)">
                        </g>
                        <text x="2163.06px" y="1065.23px" style="font-family:'FuturaCyrillic-Bold', 'Futura PT', sans-serif;font-weight:700;font-size:110.27px;fill:rgb(40,89,124);stroke:rgb(235,235,235);stroke-width:2.09px;">SCIENCE</text>
                    </g>
                </g>
                <g transform="matrix(0.594459,0,0,1.40361,1888.3,552.299)">
                    <g transform="matrix(125,0,0,125,3196.37,876.478)">
                    </g>
                    <text x="2571.62px" y="876.478px" style="font-family:'FuturaCyrillicMedium', 'Futura PT', sans-serif;font-weight:450;font-size:125px;fill:rgb(25,47,52);">DETECTIVES</text>
                </g>
                <g transform="matrix(0.596881,0,0,1.40361,1401.98,961.967)">
                    <g transform="matrix(83.2666,0,0,83.2666,2004.3,512.85)">
                    </g>
                    <text x="1872.91px" y="512.85px" style="font-family:'FuturaCyrillicMedium', 'Futura PT', sans-serif;font-weight:450;font-size:83.267px;fill:rgb(25,47,52);">THE</text>
                </g>
            </g>
        </g>
    </g>
</svg>
